<svg xmlns="http://www.w3.org/2000/svg" xmlns:xlink="http://www.w3.org/1999/xlink" width="300" viewBox="0 0 224.87999 37.5" height="50" preserveAspectRatio="xMidYMid meet"><defs><g></g></defs><g fill="#ffffff" fill-opacity="1"><g transform="translate(7.726864, 28.799857)"><g><path d="M 9.574219 -22.308594 L 2.679688 -22.308594 C 2.585938 -22.308594 2.554688 -22.246094 2.554688 -22.179688 L 2.554688 0 C 2.554688 0.0976562 2.585938 0.160156 2.679688 0.160156 L 3.289062 0.160156 C 3.382812 0.160156 3.445312 0.0976562 3.445312 0 L 3.445312 -10.945312 L 9.574219 -10.945312 C 12.703125 -10.945312 15.253906 -13.5 15.253906 -16.628906 C 15.253906 -19.753906 12.703125 -22.308594 9.574219 -22.308594 Z M 9.222656 -11.203125 L 3.445312 -11.203125 L 3.445312 -22.054688 L 9.222656 -22.054688 C 12 -22.054688 14.265625 -19.628906 14.265625 -16.628906 C 14.265625 -13.628906 12 -11.203125 9.222656 -11.203125 Z M 9.222656 -11.203125 "></path></g></g></g><g fill="#ffffff" fill-opacity="1"><g transform="translate(24.289434, 28.799857)"><g><path d="M 17.394531 -4.660156 C 16.59375 -4.722656 15.894531 -5.171875 15.511719 -5.839844 L 11.457031 -12.863281 C 10.753906 -14.105469 9.574219 -15.03125 8.203125 -15.476562 L 9.414062 -15.476562 C 12.542969 -15.476562 15.09375 -18.03125 15.09375 -21.160156 C 15.09375 -21.511719 15.0625 -21.863281 15 -22.210938 C 15 -22.277344 14.9375 -22.308594 14.871094 -22.308594 L 14.171875 -22.308594 C 14.105469 -22.308594 14.074219 -22.308594 14.042969 -22.277344 C 14.011719 -22.246094 14.011719 -22.179688 14.011719 -22.148438 C 14.074219 -21.828125 14.105469 -21.476562 14.105469 -21.160156 C 14.105469 -18.191406 11.839844 -15.734375 9.0625 -15.734375 L 3.289062 -15.734375 L 3.289062 -22.179688 C 3.289062 -22.246094 3.222656 -22.308594 3.128906 -22.308594 L 2.519531 -22.308594 C 2.425781 -22.308594 2.394531 -22.246094 2.394531 -22.179688 L 2.394531 -4.5 C 2.394531 -4.4375 2.425781 -4.371094 2.519531 -4.371094 L 3.128906 -4.371094 C 3.222656 -4.371094 3.289062 -4.4375 3.289062 -4.5 L 3.289062 -15.476562 L 6.480469 -15.476562 C 8.011719 -15.476562 9.382812 -14.679688 10.148438 -13.339844 L 14.203125 -6.320312 C 14.871094 -5.171875 16.054688 -4.4375 17.363281 -4.371094 C 17.457031 -4.371094 17.488281 -4.4375 17.519531 -4.5 C 17.519531 -4.59375 17.457031 -4.660156 17.394531 -4.660156 Z M 9.414062 -3.03125 L 2.519531 -3.03125 C 2.425781 -3.03125 2.394531 -2.96875 2.394531 -2.902344 L 2.394531 0.03125 C 2.394531 0.0976562 2.425781 0.160156 2.519531 0.160156 L 3.128906 0.160156 C 3.222656 0.160156 3.289062 0.0976562 3.289062 0.03125 L 3.289062 -2.777344 L 9.0625 -2.777344 C 10.945312 -2.746094 12.671875 -1.628906 13.5 0.0625 C 13.53125 0.128906 13.5625 0.160156 13.628906 0.160156 L 14.296875 0.160156 C 14.328125 0.160156 14.394531 0.128906 14.425781 0.0976562 C 14.425781 0.03125 14.425781 0 14.425781 -0.0625 C 13.4375 -1.882812 11.488281 -3.03125 9.414062 -3.03125 Z M 9.414062 -3.03125 "></path></g></g></g><g fill="#ffffff" fill-opacity="1"><g transform="translate(42.671015, 28.799857)"><g><path d="M 13.277344 -15.957031 L 12.09375 -15.957031 C 6.03125 -15.636719 1.277344 -10.628906 1.308594 -4.53125 C 1.277344 -2.96875 1.628906 -1.371094 2.265625 0.0625 C 2.296875 0.128906 2.328125 0.160156 2.394531 0.160156 L 3.03125 0.160156 C 3.0625 0.160156 3.0625 0.160156 3.09375 0.128906 C 3.09375 0.128906 3.09375 0.128906 3.128906 0.128906 C 3.128906 0.128906 3.128906 0.0976562 3.160156 0.0976562 C 3.160156 0.0625 3.160156 0.0625 3.160156 0.03125 C 3.160156 0.03125 3.191406 0.03125 3.191406 0.03125 C 3.191406 0 3.160156 -0.03125 3.160156 -0.03125 C 3.128906 -0.160156 3.0625 -0.253906 3.03125 -0.382812 L 2.96875 -0.574219 C 2.9375 -0.671875 2.902344 -0.734375 2.871094 -0.828125 C 2.839844 -0.894531 2.839844 -0.957031 2.808594 -1.019531 C 2.808594 -1.054688 2.777344 -1.085938 2.777344 -1.117188 L 2.746094 -1.210938 C 2.710938 -1.339844 2.679688 -1.5 2.648438 -1.660156 C 2.585938 -1.789062 2.554688 -1.945312 2.519531 -2.105469 C 2.519531 -2.171875 2.488281 -2.265625 2.488281 -2.328125 L 2.488281 -2.363281 C 2.425781 -2.585938 2.394531 -2.808594 2.394531 -3 C 2.363281 -3.0625 2.363281 -3.128906 2.363281 -3.191406 C 2.328125 -3.351562 2.328125 -3.511719 2.296875 -3.703125 C 2.296875 -3.988281 2.265625 -4.277344 2.265625 -4.53125 C 2.265625 -4.820312 2.296875 -5.105469 2.296875 -5.394531 C 2.328125 -5.554688 2.328125 -5.746094 2.363281 -5.902344 C 2.394531 -6.160156 2.425781 -6.414062 2.488281 -6.734375 L 2.488281 -6.765625 C 2.488281 -6.828125 2.519531 -6.894531 2.519531 -6.988281 C 2.554688 -7.148438 2.585938 -7.277344 2.648438 -7.4375 C 2.679688 -7.59375 2.710938 -7.722656 2.746094 -7.882812 L 2.777344 -7.980469 C 2.777344 -8.011719 2.808594 -8.042969 2.808594 -8.074219 C 2.839844 -8.136719 2.839844 -8.203125 2.871094 -8.265625 C 2.902344 -8.328125 2.9375 -8.425781 2.96875 -8.488281 L 3.03125 -8.710938 C 3.128906 -8.96875 3.222656 -9.191406 3.351562 -9.445312 C 3.445312 -9.703125 3.574219 -9.925781 3.703125 -10.148438 C 3.765625 -10.308594 3.863281 -10.46875 3.957031 -10.59375 C 4.148438 -10.914062 4.339844 -11.171875 4.53125 -11.457031 L 4.660156 -11.617188 C 4.660156 -11.617188 4.660156 -11.648438 4.691406 -11.648438 L 4.691406 -11.679688 C 4.722656 -11.710938 4.753906 -11.777344 4.820312 -11.808594 C 4.820312 -11.808594 4.820312 -11.839844 4.820312 -11.839844 C 4.882812 -11.902344 4.945312 -11.96875 4.980469 -12.03125 C 5.136719 -12.191406 5.265625 -12.351562 5.425781 -12.511719 C 5.457031 -12.574219 5.519531 -12.605469 5.554688 -12.671875 C 6 -13.085938 6.445312 -13.46875 6.957031 -13.820312 C 7.019531 -13.882812 7.085938 -13.914062 7.148438 -13.980469 C 7.210938 -14.011719 7.277344 -14.074219 7.371094 -14.105469 L 7.5625 -14.234375 C 7.789062 -14.394531 8.011719 -14.488281 8.234375 -14.617188 C 8.394531 -14.679688 8.554688 -14.777344 8.679688 -14.839844 C 8.839844 -14.902344 9 -14.96875 9.160156 -15.03125 C 9.320312 -15.09375 9.480469 -15.160156 9.671875 -15.191406 C 9.957031 -15.285156 10.277344 -15.382812 10.59375 -15.445312 L 10.628906 -15.476562 C 10.785156 -15.511719 10.945312 -15.542969 11.136719 -15.574219 C 11.296875 -15.574219 11.457031 -15.605469 11.648438 -15.636719 L 11.902344 -15.636719 C 11.96875 -15.671875 12.0625 -15.671875 12.128906 -15.671875 L 13.277344 -15.671875 C 18.796875 -15.351562 23.136719 -10.46875 23.136719 -4.53125 C 23.136719 -3 22.851562 -1.46875 22.246094 -0.03125 C 22.246094 0 22.246094 0 22.246094 0.03125 C 22.246094 0.0625 22.246094 0.0625 22.246094 0.0976562 C 22.277344 0.0976562 22.277344 0.0976562 22.277344 0.0976562 C 22.277344 0.0976562 22.277344 0.128906 22.308594 0.128906 C 22.339844 0.160156 22.339844 0.160156 22.371094 0.160156 L 23.011719 0.160156 C 23.074219 0.160156 23.136719 0.128906 23.136719 0.0625 C 23.808594 -1.371094 24.128906 -2.96875 24.128906 -4.53125 C 24.128906 -10.628906 19.371094 -15.636719 13.277344 -15.957031 Z M 11.519531 -17.363281 C 11.554688 -17.363281 11.585938 -17.363281 11.617188 -17.363281 L 11.679688 -17.363281 C 11.746094 -17.328125 11.808594 -17.328125 11.871094 -17.328125 C 11.9375 -17.328125 11.96875 -17.328125 12.03125 -17.328125 C 12.0625 -17.328125 12.09375 -17.296875 12.128906 -17.296875 L 13.277344 -17.296875 C 16.753906 -17.488281 19.976562 -19.246094 21.988281 -22.085938 C 22.019531 -22.117188 22.019531 -22.179688 22.019531 -22.210938 C 21.988281 -22.277344 21.925781 -22.308594 21.894531 -22.308594 L 21.320312 -22.308594 C 21.285156 -22.308594 21.285156 -22.277344 21.285156 -22.277344 C 21.285156 -22.277344 21.253906 -22.277344 21.253906 -22.277344 C 21.253906 -22.277344 21.253906 -22.277344 21.222656 -22.277344 C 21.222656 -22.277344 21.191406 -22.246094 21.191406 -22.246094 C 21.0625 -22.054688 20.96875 -21.894531 20.839844 -21.734375 C 19.054688 -19.308594 16.277344 -17.777344 13.277344 -17.585938 L 12.128906 -17.585938 C 12.0625 -17.585938 12 -17.585938 11.9375 -17.585938 L 11.871094 -17.617188 C 11.808594 -17.617188 11.746094 -17.617188 11.710938 -17.617188 L 11.648438 -17.617188 C 11.457031 -17.648438 11.296875 -17.679688 11.136719 -17.679688 C 10.945312 -17.710938 10.785156 -17.746094 10.628906 -17.777344 C 10.5625 -17.808594 10.46875 -17.808594 10.402344 -17.839844 C 10.246094 -17.871094 10.085938 -17.9375 9.894531 -17.96875 C 9.734375 -18.03125 9.574219 -18.0625 9.414062 -18.128906 C 9.253906 -18.191406 9.09375 -18.253906 8.9375 -18.320312 C 8.777344 -18.382812 8.648438 -18.445312 8.519531 -18.511719 C 8.488281 -18.511719 8.488281 -18.511719 8.457031 -18.542969 C 8.328125 -18.605469 8.203125 -18.671875 8.074219 -18.734375 C 7.980469 -18.765625 7.914062 -18.796875 7.851562 -18.863281 C 7.753906 -18.894531 7.691406 -18.925781 7.628906 -18.988281 C 7.5625 -19.019531 7.5 -19.054688 7.402344 -19.117188 C 7.210938 -19.246094 6.988281 -19.371094 6.796875 -19.53125 C 6.734375 -19.5625 6.671875 -19.628906 6.605469 -19.660156 C 6.414062 -19.820312 6.222656 -19.976562 6.03125 -20.136719 C 5.96875 -20.203125 5.9375 -20.234375 5.871094 -20.296875 C 5.777344 -20.394531 5.648438 -20.488281 5.554688 -20.585938 C 5.519531 -20.648438 5.457031 -20.679688 5.425781 -20.746094 C 5.328125 -20.839844 5.265625 -20.902344 5.203125 -20.96875 C 5.171875 -21 5.136719 -21.03125 5.136719 -21.0625 C 5.074219 -21.09375 5.042969 -21.160156 4.980469 -21.222656 C 4.914062 -21.285156 4.882812 -21.351562 4.820312 -21.414062 C 4.753906 -21.476562 4.722656 -21.542969 4.660156 -21.605469 L 4.5 -21.828125 C 4.46875 -21.894531 4.402344 -21.957031 4.371094 -22.019531 C 4.308594 -22.085938 4.277344 -22.148438 4.210938 -22.246094 C 4.179688 -22.277344 4.117188 -22.308594 4.085938 -22.308594 L 3.542969 -22.308594 C 3.480469 -22.308594 3.414062 -22.277344 3.414062 -22.210938 C 3.382812 -22.179688 3.382812 -22.117188 3.414062 -22.085938 C 5.328125 -19.402344 8.265625 -17.679688 11.519531 -17.363281 Z M 11.519531 -17.363281 "></path></g></g></g><g fill="#ffffff" fill-opacity="1"><g transform="translate(68.424337, 28.799857)"><g><path d="M 12.160156 -22.308594 L 11.554688 -22.308594 C 11.457031 -22.308594 11.394531 -22.246094 11.394531 -22.179688 L 11.394531 -5.648438 C 11.394531 -2.710938 9.351562 -0.289062 6.734375 -0.128906 C 6.671875 -0.128906 6.574219 -0.128906 6.511719 -0.128906 C 5.136719 -0.128906 3.828125 -0.605469 2.808594 -1.5 L 2.777344 -1.5625 C 1.179688 -3.0625 1.5625 -5.234375 1.691406 -5.617188 C 1.722656 -5.648438 1.691406 -5.710938 1.691406 -5.746094 C 1.660156 -5.777344 1.628906 -5.808594 1.5625 -5.808594 L 0.828125 -5.808594 C 0.734375 -5.808594 0.703125 -5.746094 0.703125 -5.648438 C 0.703125 -4.019531 1.371094 -2.457031 2.585938 -1.371094 L 2.617188 -1.339844 L 2.617188 -1.308594 L 2.648438 -1.308594 C 3.703125 -0.382812 5.074219 0.160156 6.511719 0.160156 C 6.574219 0.160156 6.671875 0.160156 6.765625 0.128906 C 9.796875 0 12.222656 -2.457031 12.285156 -5.519531 C 12.285156 -5.519531 12.320312 -5.519531 12.320312 -5.519531 L 12.320312 -22.179688 C 12.320312 -22.210938 12.285156 -22.246094 12.253906 -22.277344 C 12.222656 -22.308594 12.191406 -22.308594 12.160156 -22.308594 Z M 12.160156 -22.308594 "></path></g></g></g><g fill="#ffffff" fill-opacity="1"><g transform="translate(83.423206, 28.799857)"><g><path d="M 21.765625 -4.402344 C 19.691406 -1.5625 16.371094 0.0625 12.863281 0.0625 L 12.574219 0.0625 C 10.339844 0 8.203125 -0.796875 6.480469 -2.234375 L 21.476562 -17.203125 L 21.988281 -17.746094 C 22.019531 -17.808594 22.019531 -17.871094 21.988281 -17.9375 C 20.585938 -19.820312 18.636719 -21.191406 16.402344 -21.925781 L 16.339844 -21.957031 C 16.246094 -21.988281 16.179688 -22.019531 16.117188 -22.019531 L 16.054688 -22.054688 C 15.03125 -22.339844 13.945312 -22.5 12.863281 -22.5 L 12.574219 -22.5 C 6.382812 -22.371094 1.402344 -17.265625 1.46875 -11.074219 C 1.402344 -4.882812 6.382812 0.222656 12.574219 0.320312 L 12.863281 0.351562 C 16.46875 0.351562 19.851562 -1.339844 21.988281 -4.210938 C 22.054688 -4.277344 22.019531 -4.371094 21.957031 -4.402344 C 21.925781 -4.4375 21.894531 -4.4375 21.863281 -4.4375 C 21.828125 -4.4375 21.796875 -4.4375 21.765625 -4.402344 Z M 2.425781 -11.074219 C 2.425781 -17.171875 6.894531 -22.054688 12.574219 -22.210938 L 12.863281 -22.210938 C 13.914062 -22.210938 14.96875 -22.085938 15.957031 -21.796875 L 16.019531 -21.765625 C 16.117188 -21.734375 16.179688 -21.734375 16.246094 -21.703125 L 16.339844 -21.667969 C 18.511719 -21 20.296875 -19.4375 21.191406 -17.328125 L 6.289062 -2.425781 C 3.796875 -4.59375 2.394531 -7.789062 2.425781 -11.074219 Z M 2.425781 -11.074219 "></path></g></g></g><g fill="#ffffff" fill-opacity="1"><g transform="translate(106.878845, 28.799857)"><g><path d="M 8.105469 -22.054688 C 9.480469 -21.476562 10.980469 -21.128906 12.480469 -21.0625 L 12.765625 -21.0625 C 14.394531 -21.0625 15.957031 -21.382812 17.425781 -22.054688 C 17.519531 -22.085938 17.519531 -22.148438 17.519531 -22.246094 C 17.488281 -22.308594 17.394531 -22.339844 17.328125 -22.308594 C 15.894531 -21.667969 14.328125 -21.320312 12.765625 -21.320312 L 12.480469 -21.320312 C 11.105469 -21.414062 9.765625 -21.734375 8.488281 -22.308594 C 8.488281 -22.308594 8.457031 -22.308594 8.457031 -22.308594 L 8.136719 -22.308594 C 8.074219 -22.308594 8.042969 -22.277344 8.011719 -22.210938 C 8.011719 -22.148438 8.042969 -22.085938 8.105469 -22.054688 Z M 21.894531 -15.160156 C 20.488281 -17.011719 18.542969 -18.414062 16.308594 -19.148438 L 16.246094 -19.179688 C 16.148438 -19.210938 16.085938 -19.210938 16.019531 -19.246094 L 15.957031 -19.246094 C 14.902344 -19.5625 13.851562 -19.722656 12.765625 -19.722656 L 12.480469 -19.691406 C 6.351562 -19.402344 1.371094 -14.265625 1.371094 -8.296875 C 1.371094 -5.105469 2.710938 -2.042969 5.042969 0.128906 C 5.074219 0.128906 5.105469 0.160156 5.136719 0.160156 L 5.617188 0.160156 C 5.679688 0.160156 5.746094 0.128906 5.746094 0.0625 C 5.777344 0.03125 5.777344 -0.03125 5.710938 -0.0625 C 3.542969 -2.265625 2.328125 -5.203125 2.328125 -8.296875 C 2.328125 -14.105469 6.894531 -19.117188 12.480469 -19.4375 L 12.765625 -19.4375 C 13.820312 -19.4375 14.871094 -19.277344 15.863281 -18.988281 L 15.925781 -18.988281 C 16.019531 -18.957031 16.085938 -18.925781 16.148438 -18.925781 L 16.246094 -18.894531 C 18.445312 -18.222656 20.234375 -16.59375 21.160156 -14.457031 C 21.160156 -14.425781 21.191406 -14.394531 21.253906 -14.394531 C 21.320312 -14.394531 21.351562 -14.394531 21.382812 -14.425781 L 21.894531 -14.96875 C 21.925781 -15.03125 21.925781 -15.09375 21.894531 -15.160156 Z M 21.894531 -15.160156 "></path></g></g></g><g fill="#ffffff" fill-opacity="1"><g transform="translate(129.664323, 28.799857)"><g><path d="M 17.9375 -22.308594 L 0.414062 -22.308594 C 0.320312 -22.308594 0.289062 -22.246094 0.289062 -22.179688 L 0.289062 -21.414062 C 0.289062 -21.382812 0.289062 -21.351562 0.351562 -21.320312 C 0.351562 -21.285156 0.382812 -21.285156 0.414062 -21.285156 C 0.414062 -21.285156 0.445312 -21.285156 0.480469 -21.320312 C 1.851562 -21.988281 3.480469 -22.054688 7.371094 -22.054688 L 8.710938 -22.054688 L 8.710938 0.03125 C 8.710938 0.0976562 8.777344 0.160156 8.871094 0.160156 L 9.480469 0.160156 C 9.574219 0.160156 9.605469 0.0976562 9.605469 0.03125 L 9.605469 -22.054688 L 10.945312 -22.054688 C 14.871094 -22.054688 16.5 -21.988281 17.871094 -21.320312 C 17.902344 -21.285156 17.902344 -21.285156 17.9375 -21.285156 C 17.96875 -21.285156 18 -21.285156 18 -21.320312 C 18.03125 -21.351562 18.0625 -21.382812 18.0625 -21.414062 L 18.0625 -22.179688 C 18.0625 -22.246094 18 -22.308594 17.9375 -22.308594 Z M 17.9375 -22.308594 "></path></g></g></g><g fill="#ffffff" fill-opacity="1"><g transform="translate(148.333098, 28.799857)"><g></g></g></g><g fill="#ffffff" fill-opacity="1"><g transform="translate(157.906873, 28.799857)"><g><path d="M 14.203125 -22.308594 C 14.171875 -22.308594 14.136719 -22.308594 14.105469 -22.308594 C 14.074219 -22.277344 14.042969 -22.277344 14.011719 -22.246094 L 7.722656 -8.171875 L 1.4375 -22.246094 C 1.402344 -22.277344 1.371094 -22.308594 1.308594 -22.308594 L 0.636719 -22.308594 C 0.605469 -22.308594 0.605469 -22.308594 0.574219 -22.308594 C 0.574219 -22.308594 0.574219 -22.277344 0.542969 -22.277344 C 0.542969 -22.277344 0.542969 -22.277344 0.511719 -22.246094 C 0.511719 -22.210938 0.511719 -22.210938 0.511719 -22.210938 C 0.511719 -22.179688 0.511719 -22.179688 0.511719 -22.179688 C 0.480469 -22.148438 0.511719 -22.148438 0.511719 -22.117188 L 6.925781 -7.753906 L 6.925781 0.03125 C 6.925781 0.0976562 6.988281 0.160156 7.085938 0.160156 L 7.691406 0.160156 C 7.789062 0.160156 7.851562 0.0976562 7.851562 0.03125 L 7.851562 -7.722656 L 14.265625 -22.117188 C 14.296875 -22.179688 14.265625 -22.277344 14.203125 -22.308594 Z M 14.203125 -22.308594 "></path></g></g></g><g fill="#ffffff" fill-opacity="1"><g transform="translate(173.001485, 28.799857)"><g><path d="M 13.277344 -15.957031 L 12.09375 -15.957031 C 6.03125 -15.636719 1.277344 -10.628906 1.308594 -4.53125 C 1.277344 -2.96875 1.628906 -1.371094 2.265625 0.0625 C 2.296875 0.128906 2.328125 0.160156 2.394531 0.160156 L 3.03125 0.160156 C 3.0625 0.160156 3.0625 0.160156 3.09375 0.128906 C 3.09375 0.128906 3.09375 0.128906 3.128906 0.128906 C 3.128906 0.128906 3.128906 0.0976562 3.160156 0.0976562 C 3.160156 0.0625 3.160156 0.0625 3.160156 0.03125 C 3.160156 0.03125 3.191406 0.03125 3.191406 0.03125 C 3.191406 0 3.160156 -0.03125 3.160156 -0.03125 C 3.128906 -0.160156 3.0625 -0.253906 3.03125 -0.382812 L 2.96875 -0.574219 C 2.9375 -0.671875 2.902344 -0.734375 2.871094 -0.828125 C 2.839844 -0.894531 2.839844 -0.957031 2.808594 -1.019531 C 2.808594 -1.054688 2.777344 -1.085938 2.777344 -1.117188 L 2.746094 -1.210938 C 2.710938 -1.339844 2.679688 -1.5 2.648438 -1.660156 C 2.585938 -1.789062 2.554688 -1.945312 2.519531 -2.105469 C 2.519531 -2.171875 2.488281 -2.265625 2.488281 -2.328125 L 2.488281 -2.363281 C 2.425781 -2.585938 2.394531 -2.808594 2.394531 -3 C 2.363281 -3.0625 2.363281 -3.128906 2.363281 -3.191406 C 2.328125 -3.351562 2.328125 -3.511719 2.296875 -3.703125 C 2.296875 -3.988281 2.265625 -4.277344 2.265625 -4.53125 C 2.265625 -4.820312 2.296875 -5.105469 2.296875 -5.394531 C 2.328125 -5.554688 2.328125 -5.746094 2.363281 -5.902344 C 2.394531 -6.160156 2.425781 -6.414062 2.488281 -6.734375 L 2.488281 -6.765625 C 2.488281 -6.828125 2.519531 -6.894531 2.519531 -6.988281 C 2.554688 -7.148438 2.585938 -7.277344 2.648438 -7.4375 C 2.679688 -7.59375 2.710938 -7.722656 2.746094 -7.882812 L 2.777344 -7.980469 C 2.777344 -8.011719 2.808594 -8.042969 2.808594 -8.074219 C 2.839844 -8.136719 2.839844 -8.203125 2.871094 -8.265625 C 2.902344 -8.328125 2.9375 -8.425781 2.96875 -8.488281 L 3.03125 -8.710938 C 3.128906 -8.96875 3.222656 -9.191406 3.351562 -9.445312 C 3.445312 -9.703125 3.574219 -9.925781 3.703125 -10.148438 C 3.765625 -10.308594 3.863281 -10.46875 3.957031 -10.59375 C 4.148438 -10.914062 4.339844 -11.171875 4.53125 -11.457031 L 4.660156 -11.617188 C 4.660156 -11.617188 4.660156 -11.648438 4.691406 -11.648438 L 4.691406 -11.679688 C 4.722656 -11.710938 4.753906 -11.777344 4.820312 -11.808594 C 4.820312 -11.808594 4.820312 -11.839844 4.820312 -11.839844 C 4.882812 -11.902344 4.945312 -11.96875 4.980469 -12.03125 C 5.136719 -12.191406 5.265625 -12.351562 5.425781 -12.511719 C 5.457031 -12.574219 5.519531 -12.605469 5.554688 -12.671875 C 6 -13.085938 6.445312 -13.46875 6.957031 -13.820312 C 7.019531 -13.882812 7.085938 -13.914062 7.148438 -13.980469 C 7.210938 -14.011719 7.277344 -14.074219 7.371094 -14.105469 L 7.5625 -14.234375 C 7.789062 -14.394531 8.011719 -14.488281 8.234375 -14.617188 C 8.394531 -14.679688 8.554688 -14.777344 8.679688 -14.839844 C 8.839844 -14.902344 9 -14.96875 9.160156 -15.03125 C 9.320312 -15.09375 9.480469 -15.160156 9.671875 -15.191406 C 9.957031 -15.285156 10.277344 -15.382812 10.59375 -15.445312 L 10.628906 -15.476562 C 10.785156 -15.511719 10.945312 -15.542969 11.136719 -15.574219 C 11.296875 -15.574219 11.457031 -15.605469 11.648438 -15.636719 L 11.902344 -15.636719 C 11.96875 -15.671875 12.0625 -15.671875 12.128906 -15.671875 L 13.277344 -15.671875 C 18.796875 -15.351562 23.136719 -10.46875 23.136719 -4.53125 C 23.136719 -3 22.851562 -1.46875 22.246094 -0.03125 C 22.246094 0 22.246094 0 22.246094 0.03125 C 22.246094 0.0625 22.246094 0.0625 22.246094 0.0976562 C 22.277344 0.0976562 22.277344 0.0976562 22.277344 0.0976562 C 22.277344 0.0976562 22.277344 0.128906 22.308594 0.128906 C 22.339844 0.160156 22.339844 0.160156 22.371094 0.160156 L 23.011719 0.160156 C 23.074219 0.160156 23.136719 0.128906 23.136719 0.0625 C 23.808594 -1.371094 24.128906 -2.96875 24.128906 -4.53125 C 24.128906 -10.628906 19.371094 -15.636719 13.277344 -15.957031 Z M 11.519531 -17.363281 C 11.554688 -17.363281 11.585938 -17.363281 11.617188 -17.363281 L 11.679688 -17.363281 C 11.746094 -17.328125 11.808594 -17.328125 11.871094 -17.328125 C 11.9375 -17.328125 11.96875 -17.328125 12.03125 -17.328125 C 12.0625 -17.328125 12.09375 -17.296875 12.128906 -17.296875 L 13.277344 -17.296875 C 16.753906 -17.488281 19.976562 -19.246094 21.988281 -22.085938 C 22.019531 -22.117188 22.019531 -22.179688 22.019531 -22.210938 C 21.988281 -22.277344 21.925781 -22.308594 21.894531 -22.308594 L 21.320312 -22.308594 C 21.285156 -22.308594 21.285156 -22.277344 21.285156 -22.277344 C 21.285156 -22.277344 21.253906 -22.277344 21.253906 -22.277344 C 21.253906 -22.277344 21.253906 -22.277344 21.222656 -22.277344 C 21.222656 -22.277344 21.191406 -22.246094 21.191406 -22.246094 C 21.0625 -22.054688 20.96875 -21.894531 20.839844 -21.734375 C 19.054688 -19.308594 16.277344 -17.777344 13.277344 -17.585938 L 12.128906 -17.585938 C 12.0625 -17.585938 12 -17.585938 11.9375 -17.585938 L 11.871094 -17.617188 C 11.808594 -17.617188 11.746094 -17.617188 11.710938 -17.617188 L 11.648438 -17.617188 C 11.457031 -17.648438 11.296875 -17.679688 11.136719 -17.679688 C 10.945312 -17.710938 10.785156 -17.746094 10.628906 -17.777344 C 10.5625 -17.808594 10.46875 -17.808594 10.402344 -17.839844 C 10.246094 -17.871094 10.085938 -17.9375 9.894531 -17.96875 C 9.734375 -18.03125 9.574219 -18.0625 9.414062 -18.128906 C 9.253906 -18.191406 9.09375 -18.253906 8.9375 -18.320312 C 8.777344 -18.382812 8.648438 -18.445312 8.519531 -18.511719 C 8.488281 -18.511719 8.488281 -18.511719 8.457031 -18.542969 C 8.328125 -18.605469 8.203125 -18.671875 8.074219 -18.734375 C 7.980469 -18.765625 7.914062 -18.796875 7.851562 -18.863281 C 7.753906 -18.894531 7.691406 -18.925781 7.628906 -18.988281 C 7.5625 -19.019531 7.5 -19.054688 7.402344 -19.117188 C 7.210938 -19.246094 6.988281 -19.371094 6.796875 -19.53125 C 6.734375 -19.5625 6.671875 -19.628906 6.605469 -19.660156 C 6.414062 -19.820312 6.222656 -19.976562 6.03125 -20.136719 C 5.96875 -20.203125 5.9375 -20.234375 5.871094 -20.296875 C 5.777344 -20.394531 5.648438 -20.488281 5.554688 -20.585938 C 5.519531 -20.648438 5.457031 -20.679688 5.425781 -20.746094 C 5.328125 -20.839844 5.265625 -20.902344 5.203125 -20.96875 C 5.171875 -21 5.136719 -21.03125 5.136719 -21.0625 C 5.074219 -21.09375 5.042969 -21.160156 4.980469 -21.222656 C 4.914062 -21.285156 4.882812 -21.351562 4.820312 -21.414062 C 4.753906 -21.476562 4.722656 -21.542969 4.660156 -21.605469 L 4.5 -21.828125 C 4.46875 -21.894531 4.402344 -21.957031 4.371094 -22.019531 C 4.308594 -22.085938 4.277344 -22.148438 4.210938 -22.246094 C 4.179688 -22.277344 4.117188 -22.308594 4.085938 -22.308594 L 3.542969 -22.308594 C 3.480469 -22.308594 3.414062 -22.277344 3.414062 -22.210938 C 3.382812 -22.179688 3.382812 -22.117188 3.414062 -22.085938 C 5.328125 -19.402344 8.265625 -17.679688 11.519531 -17.363281 Z M 11.519531 -17.363281 "></path></g></g></g><g fill="#ffffff" fill-opacity="1"><g transform="translate(198.754799, 28.799857)"><g><path d="M 15.925781 -22.308594 C 15.863281 -22.308594 15.796875 -22.246094 15.796875 -22.179688 L 15.796875 -6.734375 C 15.796875 -6.636719 15.796875 -6.511719 15.796875 -6.382812 C 15.765625 -6.289062 15.765625 -6.191406 15.765625 -6.09375 C 15.765625 -6.0625 15.765625 -6.0625 15.765625 -6.0625 C 15.734375 -5.96875 15.734375 -5.871094 15.734375 -5.777344 C 15.222656 -2.710938 12.574219 -0.445312 9.480469 -0.445312 C 6 -0.445312 3.191406 -3.253906 3.191406 -6.734375 L 3.191406 -22.179688 C 3.191406 -22.246094 3.128906 -22.308594 3.03125 -22.308594 L 2.425781 -22.308594 C 2.328125 -22.308594 2.296875 -22.246094 2.296875 -22.179688 L 2.296875 -6.734375 C 2.296875 -2.9375 5.363281 0.160156 9.160156 0.160156 C 12.574219 0.128906 15.476562 -2.363281 15.988281 -5.746094 C 15.988281 -5.839844 16.019531 -5.9375 16.019531 -6.03125 C 16.019531 -6.03125 16.019531 -6.03125 16.019531 -6.0625 C 16.054688 -6.160156 16.054688 -6.289062 16.054688 -6.382812 C 16.054688 -6.511719 16.054688 -6.636719 16.054688 -6.734375 L 16.054688 -22.179688 C 16.054688 -22.246094 15.988281 -22.308594 15.925781 -22.308594 Z M 15.925781 -22.308594 "></path></g></g></g></svg>